<svg width="800" height="300" viewBox="0 0 800 300" xmlns="http://www.w3.org/2000/svg">
  <rect x="5" y="5" width="790" height="290" rx="20" fill="#222" stroke="#555" stroke-width="4"/>

  <g fill="#444" stroke="#777" stroke-width="2">
    <!-- Row 1 -->
    <rect x="20" y="20" width="50" height="40" rx="6"/>
    <rect x="80" y="20" width="50" height="40" rx="6"/>
    <rect x="140" y="20" width="50" height="40" rx="6"/>
    <rect x="200" y="20" width="50" height="40" rx="6"/>
    <rect x="260" y="20" width="50" height="40" rx="6"/>
    <rect x="320" y="20" width="50" height="40" rx="6"/>
    <rect x="380" y="20" width="50" height="40" rx="6"/>
    <rect x="440" y="20" width="50" height="40" rx="6"/>
    <rect x="500" y="20" width="50" height="40" rx="6"/>
    <rect x="560" y="20" width="50" height="40" rx="6"/>
    <rect x="620" y="20" width="50" height="40" rx="6"/>
    <rect x="680" y="20" width="50" height="40" rx="6"/>

    <!-- Row 2 -->
    <rect x="20" y="70" width="60" height="40" rx="6"/>
    <rect x="90" y="70" width="50" height="40" rx="6"/>
    <rect x="150" y="70" width="50" height="40" rx="6"/>
    <rect x="210" y="70" width="50" height="40" rx="6"/>
    <rect x="270" y="70" width="50" height="40" rx="6"/>
    <rect x="330" y="70" width="50" height="40" rx="6"/>
    <rect x="390" y="70" width="50" height="40" rx="6"/>
    <rect x="450" y="70" width="50" height="40" rx="6"/>
    <rect x="510" y="70" width="50" height="40" rx="6"/>
    <rect x="570" y="70" width="50" height="40" rx="6"/>
    <rect x="630" y="70" width="100" height="40" rx="6"/>

    <!-- Row 3 -->
    <rect x="20" y="120" width="70" height="40" rx="6"/>
    <rect x="100" y="120" width="50" height="40" rx="6"/>
    <rect x="160" y="120" width="50" height="40" rx="6"/>
    <rect x="220" y="120" width="50" height="40" rx="6"/>
    <rect x="280" y="120" width="50" height="40" rx="6"/>
    <rect x="340" y="120" width="50" height="40" rx="6"/>
    <rect x="400" y="120" width="50" height="40" rx="6"/>
    <rect x="460" y="120" width="50" height="40" rx="6"/>
    <rect x="520" y="120" width="50" height="40" rx="6"/>
    <rect x="580" y="120" width="150" height="40" rx="6"/>

    <!-- Row 4 -->
    <rect x="20" y="170" width="90" height="40" rx="6"/>
    <rect x="120" y="170" width="50" height="40" rx="6"/>
    <rect x="180" y="170" width="50" height="40" rx="6"/>
    <rect x="240" y="170" width="50" height="40" rx="6"/>
    <rect x="300" y="170" width="50" height="40" rx="6"/>
    <rect x="360" y="170" width="50" height="40" rx="6"/>
    <rect x="420" y="170" width="50" height="40" rx="6"/>
    <rect x="480" y="170" width="50" height="40" rx="6"/>
    <rect x="540" y="170" width="190" height="40" rx="6"/>

    <!-- Space row -->
    <rect x="20" y="220" width="70" height="40" rx="6"/>
    <rect x="100" y="220" width="70" height="40" rx="6"/>
    <rect x="180" y="220" width="300" height="40" rx="6"/>
    <rect x="490" y="220" width="70" height="40" rx="6"/>
    <rect x="570" y="220" width="70" height="40" rx="6"/>
    <rect x="650" y="220" width="80" height="40" rx="6"/>
  </g>
</svg>